{
	"asset":{
		"generator":"Khronos glTF Blender I/O v5.0.21",
		"version":"2.0"
	},
	"scene":0,
	"scenes":[
		{
			"name":"Scene",
			"nodes":[
				0
			]
		}
	],
	"nodes":[
		{
			"mesh":0,
			"name":"Plane",
			"scale":[
				40.61544418334961,
				40.61544418334961,
				40.61544418334961
			]
		}
	],
	"meshes":[
		{
			"name":"Plane",
			"primitives":[
				{
					"attributes":{
						"POSITION":0,
						"NORMAL":1,
						"TEXCOORD_0":2
					},
					"indices":3
				}
			]
		}
	],
	"accessors":[
		{
			"bufferView":0,
			"componentType":5126,
			"count":40804,
			"max":[
				1.1414456367492676,
				0.875306248664856,
				1.0436643362045288
			],
			"min":[
				-1.32673978805542,
				0.00037828332278877497,
				-1.296207308769226
			],
			"type":"VEC3"
		},
		{
			"bufferView":1,
			"componentType":5126,
			"count":40804,
			"type":"VEC3"
		},
		{
			"bufferView":2,
			"componentType":5126,
			"count":40804,
			"type":"VEC2"
		},
		{
			"bufferView":3,
			"componentType":5123,
			"count":61206,
			"type":"SCALAR"
		}
	],
	"bufferViews":[
		{
			"buffer":0,
			"byteLength":489648,
			"byteOffset":0,
			"target":34962
		},
		{
			"buffer":0,
			"byteLength":489648,
			"byteOffset":489648,
			"target":34962
		},
		{
			"buffer":0,
			"byteLength":326432,
			"byteOffset":979296,
			"target":34962
		},
		{
			"buffer":0,
			"byteLength":122412,
			"byteOffset":1305728,
			"target":34963
		}
	],
	"buffers":[
		{
			"byteLength":1428140,
			"uri":"Terrain1.bin"
		}
	]
}
